<?xml version="1.0" standalone="no"?>
<!DOCTYPE svg PUBLIC "-//W3C//DTD SVG 20010904//EN"
 "http://www.w3.org/TR/2001/REC-SVG-20010904/DTD/svg10.dtd">
<svg version="1.0" xmlns="http://www.w3.org/2000/svg"
 width="232.000000pt" height="213.000000pt" viewBox="0 0 232.000000 213.000000"
 preserveAspectRatio="xMidYMid meet">
<metadata>
Created by potrace 1.15, written by Peter Selinger 2001-2017
</metadata>
<g transform="translate(0.000000,213.000000) scale(0.100000,-0.100000)"
fill="#000000" stroke="none">
<path d="M960 2120 c-74 -9 -249 -64 -335 -105 -231 -110 -438 -315 -536 -531
-15 -33 -40 -98 -56 -145 -27 -80 -28 -92 -28 -274 0 -180 1 -195 28 -277 91
-288 295 -526 567 -663 181 -91 336 -125 574 -125 216 0 360 32 537 120 222
109 435 323 524 524 68 153 75 194 75 419 0 206 0 210 -30 300 -92 272 -271
481 -540 630 -89 49 -255 104 -364 122 -94 15 -317 18 -416 5z m458 -109 c406
-89 715 -389 794 -771 16 -76 19 -119 15 -215 -6 -146 -25 -220 -87 -350 -41
-88 -135 -233 -150 -235 -4 0 -4 15 -2 34 5 46 -34 132 -89 190 -52 57 -161
127 -253 161 -92 35 -220 65 -276 65 l-45 0 31 19 c42 26 100 96 129 157 80
168 44 366 -89 492 -75 71 -132 96 -221 96 -91 0 -163 -33 -234 -109 -158
-167 -157 -419 2 -582 28 -29 57 -53 64 -53 7 0 13 -3 13 -7 0 -5 -23 -9 -50
-11 -67 -4 -226 -45 -302 -78 -91 -40 -191 -108 -238 -162 -63 -73 -99 -189
-68 -220 6 -6 9 -14 6 -17 -3 -3 -26 18 -51 47 -158 186 -234 404 -224 638 3
63 13 142 21 175 106 395 425 673 860 750 110 19 322 13 444 -14z"/>
</g>
</svg>
