<?xml version="1.0" standalone="no"?>
<!DOCTYPE svg PUBLIC "-//W3C//DTD SVG 20010904//EN"
 "http://www.w3.org/TR/2001/REC-SVG-20010904/DTD/svg10.dtd">
<svg version="1.0" xmlns="http://www.w3.org/2000/svg"
 width="299.000000pt" height="375.000000pt" viewBox="0 0 299.000000 375.000000"
 preserveAspectRatio="xMidYMid meet">
<metadata>
Created by potrace 1.15, written by Peter Selinger 2001-2017
</metadata>
<g transform="translate(0.000000,375.000000) scale(0.100000,-0.100000)"
fill="#000000" stroke="none">
<path d="M573 3430 c-23 -5 -52 -14 -64 -21 -40 -21 -110 -92 -132 -134 l-22
-40 0 -1390 c0 -1336 1 -1391 19 -1425 23 -44 92 -117 128 -136 23 -12 185
-14 1046 -14 l1018 0 47 30 c51 32 101 101 117 161 6 23 9 429 8 1100 l-3
1064 -245 5 -246 5 -64 32 c-113 56 -174 121 -222 234 -20 49 -23 75 -28 294
l-5 240 -655 1 c-360 1 -674 -2 -697 -6z m349 -682 c3 -35 7 -43 31 -51 25 -8
33 -5 58 19 l29 28 35 -34 35 -34 -25 -26 c-29 -30 -31 -47 -9 -78 10 -14 25
-22 45 -22 27 0 29 -2 29 -40 0 -38 -2 -40 -29 -40 -20 0 -35 -8 -45 -22 -22
-31 -20 -48 9 -78 l25 -26 -35 -34 -35 -34 -30 29 c-29 28 -32 29 -58 14 -21
-11 -28 -24 -30 -52 -3 -37 -4 -37 -47 -37 l-44 0 -3 42 c-3 35 -7 43 -31 51
-25 8 -33 5 -58 -19 l-29 -28 -30 29 c-37 35 -37 42 -4 77 26 26 26 28 10 53
-12 19 -25 25 -51 25 -35 0 -35 0 -35 44 0 44 0 45 37 48 30 2 41 9 51 31 13
27 12 31 -12 56 -33 34 -33 41 4 76 l30 29 29 -28 c25 -24 33 -27 58 -19 24 8
28 16 31 51 l3 42 44 0 44 0 3 -42z m590 -260 c2 -24 9 -34 31 -41 23 -7 33
-5 51 12 l22 21 24 -25 23 -25 -23 -25 c-22 -23 -22 -25 -6 -50 10 -15 26 -25
41 -25 22 0 25 -4 25 -35 0 -31 -3 -35 -25 -35 -15 0 -31 -10 -41 -25 -16 -25
-16 -27 7 -51 l23 -25 -27 -26 -26 -27 -24 22 c-20 19 -28 21 -50 13 -21 -8
-27 -17 -27 -41 0 -28 -3 -30 -35 -30 -32 0 -35 2 -35 30 0 23 -6 33 -25 42
-22 10 -29 8 -50 -12 l-26 -24 -26 27 -27 26 24 26 c20 21 22 28 12 50 -9 19
-19 25 -42 25 -28 0 -30 3 -30 35 0 32 2 35 30 35 41 0 62 40 37 68 -22 24
-21 31 5 59 l22 23 23 -22 c19 -18 27 -20 48 -10 19 9 25 19 25 42 0 28 3 30
34 30 32 0 35 -3 38 -32z m898 -148 l0 -70 -70 0 -70 0 0 70 0 70 70 0 70 0 0
-70z m-1348 -272 c2 -34 8 -45 30 -58 27 -14 29 -14 60 17 l32 33 38 -37 38
-37 -31 -32 c-30 -31 -30 -32 -15 -68 14 -33 18 -36 55 -36 l41 0 0 -50 0 -50
-40 0 c-34 0 -42 -4 -56 -31 -15 -31 -15 -32 17 -65 l33 -34 -37 -37 -37 -37
-34 33 c-33 32 -34 32 -65 17 -27 -14 -31 -22 -31 -56 l0 -40 -50 0 -50 0 0
40 c0 36 -3 41 -37 55 -36 15 -37 15 -68 -15 l-31 -30 -37 38 -37 38 31 31
c29 29 30 32 18 59 -12 24 -21 30 -57 32 l-42 3 0 50 0 49 40 0 c36 0 42 4 57
35 l17 35 -32 33 -32 33 38 37 38 37 29 -30 c23 -24 35 -30 55 -25 39 10 50
24 50 66 l0 39 49 0 50 0 3 -42z m1348 -133 l0 -65 -70 0 -70 0 0 65 0 65 70
0 70 0 0 -65z m0 -410 l0 -65 -70 0 -70 0 0 65 0 65 70 0 70 0 0 -65z m0 -412
l0 -73 -865 0 -865 0 0 70 0 70 248 2 c136 2 525 3 864 3 l618 0 0 -72z m0
-403 l0 -70 -865 0 -865 0 0 70 0 70 865 0 865 0 0 -70z"/>
<path d="M804 2586 c-28 -28 -34 -42 -34 -76 0 -34 6 -48 34 -76 47 -47 92
-47 143 0 32 29 38 40 38 76 0 36 -6 47 -38 76 -51 47 -96 47 -143 0z"/>
<path d="M1444 2380 c-59 -24 -72 -104 -25 -151 38 -38 71 -37 116 2 26 23 35
39 35 63 -1 62 -71 110 -126 86z"/>
<path d="M924 1886 c-29 -29 -34 -41 -34 -80 0 -39 6 -52 34 -84 30 -32 40
-37 80 -37 84 0 148 93 112 163 -25 48 -63 72 -113 72 -38 0 -50 -5 -79 -34z"/>
<path d="M2097 3413 c-4 -3 -7 -99 -7 -212 0 -195 1 -209 24 -256 25 -56 89
-118 145 -143 45 -21 446 -31 464 -13 8 8 -71 94 -298 321 -171 171 -313 310
-316 310 -3 0 -9 -3 -12 -7z"/>
</g>
</svg>
