<?xml version="1.0" standalone="no"?>
<!DOCTYPE svg PUBLIC "-//W3C//DTD SVG 20010904//EN"
 "http://www.w3.org/TR/2001/REC-SVG-20010904/DTD/svg10.dtd">
<svg version="1.0" xmlns="http://www.w3.org/2000/svg"
 width="64.000000pt" height="85.000000pt" viewBox="0 0 64.000000 85.000000"
 preserveAspectRatio="xMidYMid meet">
<metadata>
Created by potrace 1.10, written by Peter Selinger 2001-2011
</metadata>
<g transform="translate(0.000000,85.000000) scale(0.100000,-0.100000)"
fill="#000000" stroke="none">
<path d="M12 838 c-17 -17 -17 -809 0 -826 17 -17 599 -17 616 0 9 9 12 87 12
290 l0 278 -113 0 c-159 0 -157 -2 -157 151 l0 119 -173 0 c-121 0 -177 -4
-185 -12z m411 -447 c49 -49 87 -95 85 -103 -3 -8 -28 -15 -69 -18 l-64 -5 -3
-77 -3 -78 -49 0 -49 0 -3 78 -3 77 -64 5 c-42 3 -66 10 -69 19 -5 15 169 191
189 191 7 0 53 -40 102 -89z"/>
<path d="M430 745 l0 -105 105 0 c78 0 105 3 105 13 0 16 -181 197 -198 197
-9 0 -12 -29 -12 -105z"/>
</g>
</svg>
